<svg width="428" height="160" viewBox="0 0 428 160" fill="none" xmlns="http://www.w3.org/2000/svg">
<path d="M56.29 97.9997L55.0306 81.7413H34.3069L28.6966 97.9997H6.94238L41.1766 18.4252H66.3657L78.2732 97.9997H56.29ZM39.4592 66.6279H54.0001L51.3667 32.1647L39.4592 66.6279Z" fill="url(#paint0_linear_324_7427)"/>
<path d="M115.022 16.3643C126.242 16.3643 135.402 19.9136 142.501 27.0124L131.738 38.004C129.296 35.7904 126.777 34.1874 124.182 33.1951C121.586 32.1265 118.762 31.5922 115.709 31.5922C112.427 31.5922 109.831 32.2792 107.923 33.6531C106.015 35.0271 105.061 36.8972 105.061 39.2634C105.061 41.3243 105.939 42.9654 107.694 44.1867C109.45 45.408 112.846 46.8583 117.884 48.5376C124.754 50.8275 129.83 53.7662 133.112 57.3537C136.471 60.9413 138.15 65.5974 138.15 71.3222C138.15 76.2074 136.967 80.8635 134.601 85.2907C132.311 89.6415 128.571 93.2291 123.38 96.0533C118.19 98.8012 111.511 100.175 103.343 100.175C91.2068 100.175 81.2456 96.2059 73.4599 88.2676L85.3675 76.36C90.4053 81.5505 96.5499 84.1457 103.801 84.1457C107.694 84.1457 110.709 83.3443 112.846 81.7413C115.06 80.1384 116.167 77.8866 116.167 74.9861C116.167 72.6962 115.289 70.7879 113.533 69.2613C111.778 67.6583 108.686 66.0936 104.259 64.567C96.7026 62.0481 91.2831 58.9567 88.0009 55.2928C84.7187 51.6289 83.0776 47.1636 83.0776 41.8968C83.0776 37.4696 84.2225 33.3096 86.5124 29.4168C88.8787 25.5239 92.4662 22.3944 97.275 20.0281C102.084 17.5855 107.999 16.3643 115.022 16.3643Z" fill="url(#paint1_linear_324_7427)"/>
<path d="M180.781 18.4252C190.246 18.4252 197.612 20.3716 202.879 24.2645C208.145 28.081 210.779 33.6913 210.779 41.0953C210.779 46.2858 209.557 51.2473 207.115 55.9798C204.749 60.7123 200.932 64.6433 195.665 67.7728C190.399 70.8261 183.681 72.3527 175.514 72.3527H167.27L163.721 97.9997H142.883L153.989 18.4252H180.781ZM175.4 57.2392C180.437 57.2392 183.987 55.7126 186.048 52.6594C188.185 49.6062 189.254 46.1332 189.254 42.2403C189.254 39.2634 188.376 37.0498 186.62 35.5995C184.865 34.1493 182.193 33.4241 178.605 33.4241H172.766L169.446 57.2392H175.4Z" fill="url(#paint2_linear_324_7427)"/>
<path d="M240.631 18.4252L229.525 97.9997H208.687L219.793 18.4252H240.631Z" fill="url(#paint3_linear_324_7427)"/>
<path d="M304.18 39.9504C304.18 45.4462 302.921 50.255 300.402 54.3768C297.96 58.4987 293.38 62.1244 286.663 65.2539L301.204 97.9997H278.533L267.313 68.6888H261.13L257.008 97.9997H236.17L247.276 18.4252H274.526C284.144 18.4252 291.471 20.3716 296.509 24.2645C301.623 28.081 304.18 33.3096 304.18 39.9504ZM263.076 54.2623H270.175C274.526 54.2623 277.694 53.0029 279.678 50.484C281.663 47.8888 282.655 44.7974 282.655 41.2098C282.655 38.4619 281.777 36.4392 280.022 35.1416C278.266 33.8439 275.595 33.1951 272.007 33.1951H266.053L263.076 54.2623Z" fill="url(#paint4_linear_324_7427)"/>
<path d="M366.964 18.4252L362.614 33.4241H335.936L333.532 50.255H356.889L354.942 64.9105H331.585L329.066 83.0008H357.576L355.515 97.9997H306.053L317.159 18.4252H366.964Z" fill="url(#paint5_linear_324_7427)"/>
<path d="M409.956 34.244C409.433 37.3674 408.911 40.4908 408.389 43.6141C407.04 51.7169 405.001 59.5037 402.165 67.1053C374.051 140.063 290.821 158.152 225.009 159.486C156.322 160.442 88.4313 145.895 25.2363 120.734C18.252 117.921 11.2377 114.919 4.39551 111.801C3.20392 111.258 2.0119 110.715 0.820312 110.172C1.87689 107.775 2.93366 105.379 3.99023 102.982C5.19485 103.496 6.39987 104.01 7.60449 104.523C14.4103 107.424 21.3815 110.21 28.3184 112.807C91.0406 136.042 158.233 148.597 224.588 146.016C288.849 143.53 363.979 122.135 384.811 60.8495C387.047 54.3662 388.62 47.7072 389.611 40.7098C390.057 37.5745 390.503 34.4389 390.949 31.3036C397.285 32.2838 403.62 33.2638 409.956 34.244Z" fill="url(#paint6_linear_324_7427)"/>
<path d="M405.512 0.928711L427.276 43.7662L371.749 35.1155L405.512 0.928711Z" fill="white"/>
<defs>
<linearGradient id="paint0_linear_324_7427" x1="329.203" y1="54.6071" x2="329.225" y2="105.047" gradientUnits="userSpaceOnUse">
<stop stop-color="white"/>
<stop offset="1" stop-color="#33B19A"/>
</linearGradient>
<linearGradient id="paint1_linear_324_7427" x1="329.203" y1="54.6071" x2="329.225" y2="105.047" gradientUnits="userSpaceOnUse">
<stop stop-color="white"/>
<stop offset="1" stop-color="#33B19A"/>
</linearGradient>
<linearGradient id="paint2_linear_324_7427" x1="329.203" y1="54.6071" x2="329.225" y2="105.047" gradientUnits="userSpaceOnUse">
<stop stop-color="white"/>
<stop offset="1" stop-color="#33B19A"/>
</linearGradient>
<linearGradient id="paint3_linear_324_7427" x1="329.203" y1="54.6071" x2="329.225" y2="105.047" gradientUnits="userSpaceOnUse">
<stop stop-color="white"/>
<stop offset="1" stop-color="#33B19A"/>
</linearGradient>
<linearGradient id="paint4_linear_324_7427" x1="329.203" y1="54.6071" x2="329.225" y2="105.047" gradientUnits="userSpaceOnUse">
<stop stop-color="white"/>
<stop offset="1" stop-color="#33B19A"/>
</linearGradient>
<linearGradient id="paint5_linear_324_7427" x1="329.203" y1="54.6071" x2="329.225" y2="105.047" gradientUnits="userSpaceOnUse">
<stop stop-color="white"/>
<stop offset="1" stop-color="#33B19A"/>
</linearGradient>
<linearGradient id="paint6_linear_324_7427" x1="375.752" y1="77.9783" x2="375.77" y2="128.428" gradientUnits="userSpaceOnUse">
<stop stop-color="white"/>
<stop offset="1" stop-color="#33B19A"/>
</linearGradient>
</defs>
</svg>
